<svg width="44" height="45" viewBox="0 0 44 45" fill="none" xmlns="http://www.w3.org/2000/svg">
<path d="M39.02 15.6723L28.1102 14.0867L23.2333 4.19961C23.1001 3.92891 22.8809 3.70977 22.6102 3.57657C21.9313 3.24141 21.1063 3.52071 20.7668 4.19961L15.8899 14.0867L4.98013 15.6723C4.67935 15.7152 4.40435 15.857 4.1938 16.0719C3.93926 16.3335 3.799 16.6855 3.80383 17.0505C3.80867 17.4154 3.9582 17.7636 4.21958 18.0184L12.1129 25.7141L10.2481 36.5809C10.2044 36.8337 10.2323 37.0936 10.3288 37.3313C10.4253 37.569 10.5865 37.7749 10.7941 37.9257C11.0017 38.0764 11.2473 38.166 11.5032 38.1843C11.7591 38.2025 12.015 38.1487 12.2418 38.0289L22.0001 32.8984L31.7583 38.0289C32.0247 38.1707 32.334 38.218 32.6305 38.1664C33.3782 38.0375 33.8809 37.3285 33.752 36.5809L31.8872 25.7141L39.7805 18.0184C39.9954 17.8078 40.1372 17.5328 40.1801 17.232C40.2962 16.4801 39.7719 15.784 39.02 15.6723Z" fill="#FBBF24"/>
<path d="M39.02 15.6723L28.1102 14.0867L23.2333 4.19961C23.1001 3.92891 22.8809 3.70977 22.6102 3.57657C21.9313 3.24141 21.1063 3.52071 20.7668 4.19961L15.8899 14.0867L4.98013 15.6723C4.67935 15.7152 4.40435 15.857 4.1938 16.0719C3.93926 16.3335 3.799 16.6855 3.80383 17.0505C3.80867 17.4154 3.9582 17.7636 4.21958 18.0184L12.1129 25.7141L10.2481 36.5809C10.2044 36.8337 10.2323 37.0936 10.3288 37.3313C10.4253 37.569 10.5865 37.7749 10.7941 37.9257C11.0017 38.0764 11.2473 38.166 11.5032 38.1843C11.7591 38.2025 12.015 38.1487 12.2418 38.0289L22.0001 32.8984L31.7583 38.0289C32.0247 38.1707 32.334 38.218 32.6305 38.1664C33.3782 38.0375 33.8809 37.3285 33.752 36.5809L31.8872 25.7141L39.7805 18.0184C39.9954 17.8078 40.1372 17.5328 40.1801 17.232C40.2962 16.4801 39.7719 15.784 39.02 15.6723Z" fill="url(#paint0_linear)"/>
<defs>
<linearGradient id="paint0_linear" x1="22" y1="3.43475" x2="22" y2="38.1877" gradientUnits="userSpaceOnUse">
<stop stop-color="white" stop-opacity="0.2"/>
<stop offset="1" stop-color="white" stop-opacity="0"/>
</linearGradient>
</defs>
</svg>
